<svg
    version="1.2"
    baseProfile="tiny" 
    xmlns="http://www.w3.org/2000/svg" 
    viewBox="0 0 500 500"
    preserveAspectRatio="xMidYMid meet">
    <path fill="#7E8389"
        d="M233.4 249.2l-20.9-22.8c-6.1-6.6-16.3-7.3-23.2-1.6l-37.8 31.4v-99.6H326c3.3-3.3 1-8.9-3.7-8.9H147c-2.5 0-4.5 2-4.5 4.5v175.3c0 4.7 5.6 7 8.9 3.7l82-82zM348.5 168.9v114.6l-28.7-32.9c-6.3-7.2-17.3-7.7-24.2-1.2L267.4 276 255 262.4l-81 81c-3.3 3.3-1 8.9 3.7 8.9H353c2.5 0 4.5-2 4.5-4.5V172.6c-.1-4.7-5.7-7-9-3.7zM129.5 375c-1.1 0-2.3-.4-3.2-1.3-1.7-1.7-1.7-4.6 0-6.3l241.1-241.1c1.7-1.7 4.6-1.7 6.3 0 1.7 1.7 1.7 4.6 0 6.3L132.6 373.7c-.9.9-2 1.3-3.1 1.3z" />
    <ellipse fill="#7E8389" cx="242.9" cy="193.9" rx="20.2" ry="19.5" />
</svg>